<svg width="62" height="75" viewBox="0 0 62 75" fill="none" xmlns="http://www.w3.org/2000/svg">
<path d="M57.0517 21.7016L30.7803 6.03033L4.50885 21.7016V37.3729V53.0441L30.7803 69.3182L57.0517 53.0441V21.7016Z" fill="#F6376D"/>
<path d="M59.5696 17.1154L33.5696 1.53937C31.9876 0.591652 30.0124 0.591652 28.4304 1.53938L0 18.5714V37.1429V52.9363C0 54.6639 0.891876 56.2691 2.35881 57.1817L28.3588 73.3569C29.9759 74.3629 32.0241 74.3629 33.6412 73.3569L59.6412 57.1817C61.1081 56.2691 62 54.6639 62 52.9363V21.4046C62 19.6471 61.0772 18.0186 59.5696 17.1154Z" fill="#C1FB7D"/>
<path d="M53.4056 21.4013L32.5466 8.96243C31.2844 8.20979 29.7113 8.20979 28.4491 8.96243L5.63885 22.5649V37.3891V49.9854C5.63885 51.3705 6.35536 52.657 7.5329 53.3862L28.3919 66.3034C29.6822 67.1025 31.3135 67.1025 32.6038 66.3034L53.4628 53.3862C54.6403 52.657 55.3568 51.3705 55.3568 49.9854V24.8368C55.3568 23.4279 54.6156 22.1229 53.4056 21.4013Z" fill="#49575F"/>
<path d="M7.61628 22.85L5.63885 22.5649M5.63885 22.5649L28.4491 8.96243C29.7113 8.20979 31.2844 8.20979 32.5466 8.96243L53.4056 21.4013C54.6156 22.1229 55.3568 23.4279 55.3568 24.8368V49.9854C55.3568 51.3705 54.6403 52.657 53.4628 53.3862L32.6038 66.3034C31.3135 67.1025 29.6822 67.1025 28.3919 66.3034L7.5329 53.3862C6.35536 52.657 5.63885 51.3705 5.63885 49.9854V37.3891V22.5649Z" stroke="#49575F" stroke-width="4"/>
<path d="M9.8772 25.9726V49.3474C9.8772 50.0623 10.2588 50.7228 10.8781 51.08L26.6523 60.1765C27.9856 60.9454 29.6514 59.9831 29.6514 58.4439V16.4213C29.6514 14.8631 27.9484 13.9034 26.6155 14.7104L10.8413 24.2618C10.2428 24.6242 9.8772 25.273 9.8772 25.9726Z" fill="white"/>
<path d="M18.35 31.1125V50.1771C18.35 51.2701 18.8997 52.2898 19.8127 52.8907C21.9728 54.3124 24.8473 52.7631 24.8473 50.1771V29.732C24.8473 25.9634 20.8365 23.5495 17.5064 25.3138L14.3669 26.9772C13.8629 27.2442 13.5477 27.7679 13.5477 28.3382C13.5477 29.4836 14.7535 30.2283 15.7777 29.7154L15.9489 29.6296C17.0517 29.0773 18.35 29.8792 18.35 31.1125Z" fill="#49575F"/>
<path d="M38.9722 41.4187V51.7287C38.9722 52.4737 39.7575 52.9571 40.4227 52.6215L45.2024 50.2097C45.5394 50.0397 45.7519 49.6944 45.7519 49.3169V44.2324C45.7519 43.8782 45.5645 43.5504 45.2592 43.3706L40.4795 40.5569C39.8128 40.1644 38.9722 40.6451 38.9722 41.4187Z" fill="white"/>
<path d="M38.9725 23.7437V34.0538C38.9725 34.7988 39.7579 35.2822 40.423 34.9466L45.2027 32.5348C45.5397 32.3648 45.7523 32.0195 45.7523 31.642V26.5575C45.7523 26.2032 45.5648 25.8754 45.2596 25.6957L40.4798 22.882C39.8132 22.4895 38.9725 22.9702 38.9725 23.7437Z" fill="white"/>
<path d="M41.7973 26.7926V31.451C41.7973 32.0823 42.4629 32.492 43.0265 32.2076C43.3121 32.0635 43.4922 31.7709 43.4922 31.451V26.7926C43.4922 26.4728 43.3121 26.1801 43.0265 26.036C42.4629 25.7516 41.7973 26.1613 41.7973 26.7926Z" fill="#49575F"/>
<path d="M41.728 44.4602V49.1185C41.728 49.7499 42.3936 50.1596 42.9573 49.8751C43.2428 49.731 43.423 49.4384 43.423 49.1185V44.4602C43.423 44.1403 43.2428 43.8477 42.9573 43.7036C42.3936 43.4192 41.728 43.8288 41.728 44.4602Z" fill="#49575F"/>
</svg>
