<svg width="303" height="406" viewBox="0 0 303 406" fill="none" xmlns="http://www.w3.org/2000/svg">
<rect y="388" width="303" height="18" rx="9" fill="#00A6C0"/>
<path d="M121.432 354.734H171.806" stroke="#BBED82" stroke-width="5" stroke-miterlimit="10" stroke-linecap="round"/>
<path d="M103.965 245.519L192.495 387.927" stroke="#BBED82" stroke-width="5" stroke-miterlimit="10" stroke-linecap="round"/>
<path d="M189.273 245.519L100.743 387.927" stroke="#BBED82" stroke-width="5" stroke-miterlimit="10" stroke-linecap="round"/>
<path d="M207.611 233.673C207.611 234.887 204.863 236.027 200.033 237.017C189.642 239.151 169.613 240.597 146.617 240.597C123.621 240.597 103.593 239.151 93.2078 237.014C88.3746 236.024 85.6294 234.883 85.6294 233.67C85.6294 229.848 112.937 226.745 146.624 226.745C180.311 226.745 207.611 229.848 207.611 233.673Z" fill="#BBED82" stroke="#BBED82" stroke-width="5" stroke-miterlimit="10"/>
<path d="M207.613 233.673V240.362C207.613 244.184 180.303 247.286 146.619 247.286C112.935 247.286 85.6245 244.187 85.6245 240.362V233.673C85.6245 234.886 88.373 236.027 93.2029 237.017C103.594 239.151 123.619 240.597 146.619 240.597C169.618 240.597 189.643 239.151 200.035 237.014C204.865 236.027 207.613 234.886 207.613 233.673Z" fill="#729B42" stroke="#BBED82" stroke-width="5" stroke-miterlimit="10"/>
<path d="M136.782 338.786C139.479 340.309 145.249 340.477 146.277 344.386C147.305 348.294 141.657 363.767 142.556 369.23C143.455 374.692 143.374 386.356 134.217 387.618C124.084 389.013 116.386 385.589 116.386 381.782C116.386 377.976 122.289 373.657 123.175 367.191C124.061 360.725 126.397 346.774 126.397 346.774L136.782 338.786Z" fill="#3F4D79"/>
<path d="M123.858 355.82C123.858 355.82 128.134 352.157 134.691 355.82" stroke="white" stroke-width="4" stroke-linecap="round" stroke-linejoin="round"/>
<path d="M122.891 360.28C122.891 360.28 127.167 356.616 133.724 360.28" stroke="white" stroke-width="4" stroke-linecap="round" stroke-linejoin="round"/>
<path d="M121.925 364.739C121.925 364.739 126.201 361.076 132.757 364.739" stroke="white" stroke-width="4" stroke-linecap="round" stroke-linejoin="round"/>
<path d="M171.339 357.992C169.625 360.471 159.739 366.557 160.258 369.348C160.777 372.138 169.879 380.253 170.52 384.563C171.162 388.872 170.266 395.341 174.113 397.246C177.96 399.151 198.359 399.275 201.694 397.246C205.029 395.217 201.436 388.748 197.844 387.353C194.251 385.958 184.633 370.109 185.187 360.343L171.339 357.992Z" fill="#3F4D79"/>
<path d="M189.412 369.437C189.412 369.437 185.136 365.774 178.579 369.437" stroke="white" stroke-width="4" stroke-linecap="round" stroke-linejoin="round"/>
<path d="M191.023 373.896C191.023 373.896 186.747 370.233 180.19 373.896" stroke="white" stroke-width="4" stroke-linecap="round" stroke-linejoin="round"/>
<path d="M192.956 378.355C192.956 378.355 188.68 374.692 182.123 378.355" stroke="white" stroke-width="4" stroke-linecap="round" stroke-linejoin="round"/>
<path d="M110.045 186.635C110.045 186.635 51 209.874 51 229.867C51 265.518 101.352 331.154 111.656 330.17C121.96 329.186 128.897 320.972 128.501 316.662C128.105 312.353 109.491 256.896 96.1899 238.088C96.1899 238.088 136.827 227.895 142.179 227.704C147.531 227.513 175.08 242.203 175.476 242.789C175.872 243.375 161.234 283.1 169.728 334.871C170.917 342.121 193.114 343.688 195.295 340.751C197.476 337.815 222.038 235.54 218.681 227.312C215.324 219.085 187.104 196.566 170.05 187.59C157.761 181.125 110.045 186.635 110.045 186.635Z" fill="#303A40"/>
<path d="M188.484 351.151C188.116 352.272 186.373 357.55 185.187 360.343C184.053 363.009 169.924 362.104 171.332 357.989C172.534 354.486 172.554 349.708 172.531 348.364C174.845 349.272 181.405 351.549 188.484 351.151Z" fill="#F5BD9E"/>
<path d="M188.754 351.135L192.701 341.841C192.701 341.841 179.887 343.414 171.339 337.576L171.661 347.997C171.661 347.997 180.548 351.998 188.754 351.135Z" fill="#00A6C0"/>
<path d="M130.956 327.82C130.956 327.82 135.628 337.391 136.782 338.786C137.935 340.181 131.523 347.281 126.394 346.774L118.197 335.853C118.197 335.853 126.99 334.228 130.956 327.82Z" fill="#F5BD9E"/>
<path d="M127.979 319.423L131.279 327.819C131.279 327.819 126.159 334.843 117.552 336.171L111.656 330.17C111.656 330.17 122.698 328.855 127.979 319.423Z" fill="#00A6C0"/>
<path d="M165.813 66.9273C171.026 70.7144 185.191 77.3363 194.006 83.4359C201.117 88.357 207.462 109.873 207.462 109.873C207.462 109.873 197.56 119.855 180.928 123.769C180.928 123.769 171.422 152.754 167.859 186.606C167.859 186.606 137.362 197.754 109.839 186.606C109.839 186.606 98.7482 124.553 97.3627 124.177C95.9772 123.801 75.4267 117.568 68.686 107.582C68.686 107.582 76.6349 84.9457 87.4708 80.5088C99.2444 75.6864 114.933 69.0773 120.391 66.1756C123.175 64.6722 165.813 66.9273 165.813 66.9273Z" fill="#00A6C0"/>
<path d="M216.938 161.304C216.21 174.682 190.543 187.104 177.007 192.741C176.559 195.513 174.719 196.726 171.181 197.627C163.806 199.507 164.498 204.316 164.118 205.234C163.522 206.696 156.247 208.361 154.497 207.145C153.456 206.415 156.395 197.255 158.067 194.035C159.108 192.031 166.08 188.238 170.653 186.604C170.653 186.604 193.852 158.807 197.029 157.24C197.029 157.24 188.448 133.988 184.859 125.621C184.347 124.42 183.934 123.528 183.667 123.054C183.667 123.054 196.555 119.231 205.274 111.81C205.274 111.81 206.063 113.756 207.227 116.957C210.729 126.595 217.676 147.637 216.938 161.304Z" fill="#F5BD9E"/>
<path d="M207.223 116.953C205.419 118.848 199.935 122.954 184.856 125.617C184.34 124.419 183.928 123.524 183.66 123.049C183.66 123.049 196.549 119.227 205.271 111.806C205.271 111.806 206.057 113.749 207.223 116.953Z" fill="#FAB189"/>
<path d="M124.093 206.821C122.137 207.674 116.296 206.075 115.761 205.228C115.226 204.381 114.472 199.113 108.701 197.303C104.571 196.007 102.695 194.717 102.766 190.688C90.7574 186.633 58.8233 174.606 57.3765 160.951C56.4099 151.842 66.0472 125.784 70.0716 115.404C71.1252 112.693 71.7922 111.05 71.7922 111.05C81.075 118.694 93.1225 122.682 93.1225 122.682L92.1268 125.38L80.5047 156.843C85.7954 158.827 105.064 182.219 108.067 185.891C114.327 187.089 121.032 191.392 121.815 193.711C122.637 196.141 126.107 205.938 124.093 206.821Z" fill="#F5BD9E"/>
<path d="M71.7955 111.045C81.0752 118.689 93.1258 122.677 93.1258 122.677L92.1302 125.372C85.7665 124.378 75.3141 121.948 70.075 115.396C71.1254 112.688 71.7955 111.045 71.7955 111.045Z" fill="#FAB189"/>
<path d="M186.134 207.556H92.8388L77.1343 146.535C76.8918 145.702 76.8487 144.825 77.0082 143.973C77.1678 143.122 77.5257 142.318 78.0537 141.627C78.5816 140.935 79.2651 140.374 80.0501 139.989C80.8351 139.604 81.7 139.404 82.5764 139.407H196.41C197.285 139.406 198.148 139.607 198.932 139.993C199.715 140.38 200.397 140.94 200.923 141.632C201.45 142.323 201.807 143.126 201.966 143.977C202.125 144.828 202.081 145.703 201.839 146.535L186.134 207.556Z" fill="white" stroke="#BBED82" stroke-width="7" stroke-miterlimit="10"/>
<path d="M183.305 206.983H95.6644L80.9104 149.65C79.9438 146.296 79.2607 142.324 82.7889 142.324H196.181C199.709 142.324 199.036 146.302 198.059 149.65L183.305 206.983Z" fill="#BBED82"/>
<path d="M144.821 179.562H134.153C133.795 179.561 133.447 179.443 133.165 179.226C132.882 179.008 132.681 178.704 132.593 178.361L131.32 171.567C131.289 171.458 131.284 171.343 131.305 171.232C131.326 171.121 131.372 171.016 131.441 170.925C131.51 170.835 131.6 170.761 131.702 170.711C131.805 170.66 131.918 170.634 132.032 170.634H146.941C147.056 170.634 147.169 170.66 147.271 170.711C147.374 170.761 147.463 170.835 147.532 170.925C147.601 171.016 147.648 171.121 147.669 171.232C147.69 171.343 147.685 171.458 147.653 171.567L146.374 178.37C146.284 178.711 146.083 179.012 145.803 179.227C145.522 179.443 145.176 179.56 144.821 179.562Z" stroke="white" stroke-width="6" stroke-linejoin="round"/>
<path d="M153.666 48.135C153.666 48.135 153.137 59.6015 165.813 66.9274C165.813 66.9274 153.5 87.5926 142.843 87.5926C142.843 87.5926 129.5 87.2207 120.401 66.147C120.401 66.147 131.488 57.5312 131.488 48.1382L153.666 48.135Z" fill="#FAB189"/>
<path d="M164.453 41.822C163.18 43.4719 160.883 46.5646 159.775 48.7847C157.803 59.3562 151.075 66.3508 142.546 66.3508C135.155 66.3508 130.16 58.1586 127.86 50.5429C127.805 50.4047 127.76 50.2632 127.724 50.1193C127.154 48.0203 124.064 43.8445 122.511 41.8379C122.388 41.6782 122.301 41.4944 122.256 41.2987C122.21 41.103 122.208 40.9001 122.248 40.7034C122.289 40.5067 122.372 40.3209 122.491 40.1584C122.61 39.9959 122.763 39.8604 122.94 39.7612C124.834 38.6878 125.817 39.4681 126.332 40.4874C126.059 32.8717 126.378 24.8802 130.863 24.8356C136.018 24.7878 153.163 24.4534 156.134 25.4344C158.689 26.2753 160.374 29.814 160.38 41.1244C160.783 39.8504 161.75 38.4712 164.024 39.7612C164.199 39.8606 164.349 39.9954 164.467 40.1566C164.584 40.3178 164.666 40.5018 164.707 40.6965C164.747 40.8912 164.745 41.0921 164.702 41.2861C164.658 41.4801 164.573 41.6627 164.453 41.822V41.822Z" fill="#F5BD9E"/>
<path d="M164.5 25.2207C162.5 32.2207 160.087 42.0068 160.087 42.0068C160.087 42.0068 161.553 26.8264 155.612 26.992C152.786 27.0684 147.102 30.983 141.151 30.3459C136.208 29.8172 130.035 23.1857 127.492 27.5207C126.084 30.8428 126.184 36.0569 126.397 41.4207C124.879 34.5567 121.741 29.9892 120.017 27.2627C119.5 24.2208 119.681 22.2627 120.5 18.2208C121.5 13.2818 123 11.7208 123 11.7208C124.5 9.72076 124.841 6.67076 135.741 1.77519C146.641 -3.12038 156 3.22072 160.106 7.4129C162.5 10.7207 161 8.72076 164 12.7208C166 17.2207 166 18.2208 164.5 25.2207Z" fill="#303A40"/>
<path d="M135 31.4643C150.035 33.1523 151.527 25.9195 158 26.7944" stroke="#303A40" stroke-width="3" stroke-miterlimit="10"/>
<path d="M131 29.4643C146.035 31.1523 147.527 23.9195 154 24.7944" stroke="#303A40" stroke-width="3" stroke-miterlimit="10"/>
<path d="M129 27.4643C144.035 29.1523 145.527 21.9195 152 22.7944" stroke="#303A40" stroke-width="3" stroke-miterlimit="10"/>
</svg>
