<svg width="303" height="377" viewBox="0 0 303 377" fill="none" xmlns="http://www.w3.org/2000/svg">
<path d="M18.8892 166.045H129.944C130.329 166.045 130.699 166.199 130.972 166.473C131.245 166.748 131.398 167.12 131.398 167.508V176.12C131.398 176.508 131.245 176.881 130.972 177.155C130.699 177.43 130.329 177.584 129.944 177.584H72.1645V198.33" stroke="#BBED82" stroke-width="5" stroke-miterlimit="10"/>
<path d="M31.9999 14L26.4675 51.8128C25.0791 62.0076 26.6439 72.3889 30.9741 81.711L39.0525 99.0346C44.4201 110.546 53.6862 119.538 65.0324 124.247L89.4238 134.371L31.9999 14Z" fill="white" stroke="#BBED82" stroke-width="5" stroke-miterlimit="10"/>
<path d="M50.4015 166.084H17.2752C9.7481 166.084 4.2299 158.651 6.06551 150.974L21.4096 98.7286C22.8304 92.7759 27.928 88.6044 33.7702 88.6044" stroke="#BBED82" stroke-width="5" stroke-miterlimit="10"/>
<path d="M96.254 137C95.9229 136.997 95.5994 136.901 95.3219 136.721C95.0444 136.542 94.8244 136.287 94.6879 135.988L33.1799 5.60307C32.612 4.40097 33.4578 3 34.746 3C35.079 3.001 35.4047 3.0969 35.6844 3.27632C35.9642 3.45573 36.1861 3.71112 36.324 4.01214L97.8201 134.397C98.388 135.599 97.5422 137 96.254 137Z" fill="white" stroke="#BBED82" stroke-width="5" stroke-miterlimit="10"/>
<path d="M55.0274 165.35C57.3893 165.35 59.3039 163.423 59.3039 161.047C59.3039 158.67 57.3893 156.744 55.0274 156.744C52.6656 156.744 50.751 158.67 50.751 161.047C50.751 163.423 52.6656 165.35 55.0274 165.35Z" stroke="#BBED82" stroke-width="5" stroke-miterlimit="10"/>
<path d="M50.7652 161.624C50.6884 159 52.4076 156.821 55.0274 156.744L55.4423 156.729C56.5542 156.697 57.6657 156.807 58.7498 157.058L93.3507 165.115" stroke="#BBED82" stroke-width="5" stroke-miterlimit="10"/>
<path d="M249.312 122.686L221.843 224.529C220.451 229.699 217.406 234.265 213.178 237.521C208.949 240.776 203.773 242.54 198.449 242.541H105.407" stroke="#BBED82" stroke-width="5" stroke-miterlimit="10"/>
<path d="M112.929 242.53L187.927 357.016" stroke="#BBED82" stroke-width="5" stroke-miterlimit="10" stroke-linecap="round"/>
<path d="M195.031 242.53L113.213 358.159" stroke="#BBED82" stroke-width="5" stroke-miterlimit="10" stroke-linecap="round"/>
<path d="M114.162 317.945C114.162 317.945 110.261 323.95 103.487 323.109L98.906 316.513C103.631 315.491 108.255 314.042 112.721 312.184C113.187 314.377 113.673 316.387 114.162 317.945Z" fill="#F5BD9E"/>
<path d="M210.725 213.221C207.98 219.405 198.836 235.473 177.803 236.139C151.729 236.966 103.759 234.49 103.759 234.49C103.759 234.49 114.73 278.109 114.966 311.164C114.966 311.164 106.319 315.578 93.4844 317.517C93.4844 317.517 47.452 230.884 56.5931 209.704C63.3957 193.947 115.1 187.82 138.471 185.841C148.183 191.508 180.5 209.266 210.725 213.221Z" fill="#303A40"/>
<path d="M114.162 317.945C114.162 317.945 118.902 323.189 124.133 327.352C127.446 329.988 126.144 335.072 123.323 339.343C119.08 345.749 114.371 351.83 109.235 357.536C109.235 357.536 101.895 358.317 87.6109 357.728C87.6109 357.728 87.0767 352.627 92.126 350.322C103.634 345.07 106.226 331.166 103.492 323.123C103.486 323.109 109.235 324.141 114.162 317.945Z" fill="#3F4D79"/>
<path d="M126.386 328.842C127.761 331.778 125.715 336.192 123.607 339.343C123.607 339.343 115.77 350.337 109.803 357.808L87.3268 357.999" stroke="#BBED82" stroke-width="7" stroke-miterlimit="10" stroke-linecap="round"/>
<path d="M102.032 346.48C102.032 346.48 96.8458 343.066 100.611 340.979" stroke="#BBED82" stroke-width="5" stroke-miterlimit="10" stroke-linecap="round"/>
<path d="M104.873 343.335C104.873 343.335 98.5507 339.921 102.316 337.834" stroke="#BBED82" stroke-width="5" stroke-miterlimit="10" stroke-linecap="round"/>
<path d="M181.565 69.2507C181.565 69.2507 205.377 62.6489 207.062 43.0437C207.349 39.7243 181.565 69.2507 181.565 69.2507Z" fill="#00A6C0"/>
<path d="M181.852 30.9325C181.852 30.9325 192.13 52.5563 201.587 60.6276C201.587 60.6276 186.49 70.729 173.817 70.7233C173.817 70.7233 165.519 56.0216 162.081 50.3976L181.852 30.9325Z" fill="#F5BD9E"/>
<path d="M169.853 63.7441C167.23 59.1494 163.942 53.4511 162.081 50.3975L177.124 35.5957L178.156 37.6629C179.252 47.5727 176.505 58.386 169.853 63.7441Z" fill="#FAB189"/>
<path d="M178.553 35.2555C178.553 35.2555 178.508 43.5471 175.374 48.136C171.43 53.9144 161.391 60.1444 153.75 59.0008C146.109 57.8571 139.446 18.9183 145.177 16.6139C150.908 14.3094 166.92 12.1936 171.694 19.2986C176.468 26.4036 178.553 35.2555 178.553 35.2555Z" fill="#F5BD9E"/>
<path d="M186.572 40.0617C186.572 40.0617 183.245 40.5993 178.408 38.3663C178.559 36.5478 178.627 32.8138 176.758 31.7388C174.717 30.5665 173.552 33.8745 173.191 35.1268C172.756 34.7876 172.315 34.4225 171.87 34.0318C163.914 27.0755 165.985 20.265 165.985 20.265C165.985 20.265 154.148 27.2699 142.87 26.8067C133.51 26.4236 128.927 13.2429 136.817 9.31443C136.817 9.31443 136.249 12.9255 143.137 11.1957C150.025 9.46596 148.686 2.42959 158.339 1.19158C170.233 -0.320912 172.691 7.60751 172.691 7.60751C172.691 7.60751 178.389 4.59111 184.253 10.0778C190.502 15.9248 182.429 32.2448 186.572 40.0617Z" fill="#39291E"/>
<path d="M167.201 18.9956C167.201 18.9956 156.137 27.8761 144.111 29.4515C132.799 30.9325 127.844 16.2336 135.53 10.9042" stroke="#382B21" stroke-width="4" stroke-miterlimit="10"/>
<path d="M171.668 8.19929C171.668 8.19929 175.536 2.66397 182.858 5.91197" stroke="#382B21" stroke-width="4" stroke-miterlimit="10"/>
<path d="M213.225 213.518C222.091 204.78 233.383 149.676 230.433 114.348C230.249 110.326 229.663 106.333 228.686 102.428V102.428C228.183 100.13 227.51 97.8722 226.671 95.675C224.114 89.099 218.266 82.237 210.134 77.5508C201.845 71.5781 191.03 67.4466 176.698 69.8597C155.364 73.4508 150.411 94.8802 149.263 104.636L149.246 104.618L143.458 137.361L101.222 138.965V152.867C101.222 152.867 135.88 174.139 160.43 167.974L160.646 167.917C148.996 179.382 135.55 184.1 135.55 184.1C135.55 184.1 176.459 209.638 213.225 213.518Z" fill="#00A6C0"/>
<path d="M181.173 123.189C181.173 123.189 173.086 164.175 158.052 169.404" stroke="white" stroke-width="5" stroke-miterlimit="10" stroke-linecap="round"/>
<path d="M181.565 69.2508C188.155 68.393 205.616 57.2223 207.048 42.5177C207.048 42.5177 233.301 69.2508 223.685 90.6115C223.685 90.6115 218.332 80.6045 206.755 74.5231C192.9 67.2522 181.565 69.2508 181.565 69.2508Z" fill="#303A40"/>
<path d="M226.006 91.7695C226.006 91.7695 218.05 81.1277 206.755 74.5231C190.942 65.2737 171.489 70.12 171.489 70.12" stroke="white" stroke-width="5" stroke-miterlimit="10" stroke-linecap="round"/>
<path d="M101.358 147.926C101.358 147.926 97.1613 154.602 92.6944 153.644C88.2276 152.687 84.0704 152.029 81.8058 153.201C79.0069 154.651 76.2279 157.85 74.4008 157.79C72.189 157.732 70.0088 157.247 67.979 156.361C69.1287 154.003 70.3957 151.705 71.7753 149.476C70.2267 150.462 68.1722 152.486 67.0356 153.253C65.2171 154.482 63.9441 152.732 63.9441 152.732C63.9441 152.732 67.0868 148.241 68.4621 147.071C69.7834 145.948 74.5514 142.462 76.6314 142.153C79.1291 141.556 91.4527 139.74 101.387 139.057L101.358 147.926Z" fill="#F5BD9E"/>
<path d="M70.2977 156.424C70.2977 156.424 75.8699 148.212 77.4185 147.635C80.1464 146.62 83.7039 145.279 83.7039 145.279" stroke="#FAB189" stroke-width="4" stroke-miterlimit="10" stroke-linecap="round"/>
<path d="M73.0114 157.167C73.0114 157.167 78.0465 150.305 79.5923 149.733C82.3201 148.718 85.8805 147.374 85.8805 147.374" stroke="#FAB189" stroke-width="4" stroke-miterlimit="10" stroke-linecap="round"/>
<path d="M33.0001 20C73.9946 105.571 88.0268 130.914 89.4792 131.493L89.5 131.5C89.4934 131.498 89.4864 131.496 89.4792 131.493L60.5 122C55.6667 119.833 43.1 109.5 31.5 85.5C19.9 61.5 27.3334 30.8333 33.0001 20Z" fill="#BBED82" fill-opacity="0.67"/>
<rect y="359" width="303" height="18" rx="9" fill="#00A6C0"/>
</svg>
