<svg width="39" height="32" viewBox="0 0 39 32" fill="none" xmlns="http://www.w3.org/2000/svg">
<g clip-path="url(#clip0)">
<path d="M38.926 3.86394C37.4938 4.49787 35.9546 4.92632 34.3391 5.11901C35.9881 4.13252 37.2543 2.5705 37.8506 0.70935C36.3076 1.62266 34.5984 2.28601 32.7793 2.64354C31.3225 1.09445 29.247 0.126434 26.9501 0.126434C22.5395 0.126434 18.9637 3.69512 18.9637 8.09683C18.9637 8.72152 19.0344 9.32987 19.1705 9.91322C12.5332 9.58083 6.6487 6.40762 2.70983 1.58543C2.0224 2.76263 1.62857 4.13181 1.62857 5.59251C1.62857 8.35773 3.03859 10.7974 5.18145 12.2267C3.87224 12.1853 2.64091 11.8268 1.56407 11.2298C1.5635 11.2631 1.5635 11.2965 1.5635 11.33C1.5635 15.1919 4.31633 18.4134 7.96973 19.1455C7.29953 19.3277 6.59403 19.425 5.8656 19.425C5.35103 19.425 4.85069 19.3751 4.36318 19.2821C5.37936 22.4487 8.32868 24.7531 11.8233 24.8175C9.09014 26.9552 5.64661 28.2294 1.90508 28.2294C1.26051 28.2294 0.624775 28.1918 0 28.1182C3.53422 30.3796 7.73209 31.6991 12.2421 31.6991C26.9314 31.6991 34.9641 19.5538 34.9641 9.02108C34.9641 8.67548 34.9564 8.33173 34.941 7.98996C36.5012 6.8662 37.8553 5.46234 38.926 3.86394Z" fill="#C0FB7D"/>
</g>
<defs>
<clipPath id="clip0">
<rect width="38.926" height="31.7175" fill="white"/>
</clipPath>
</defs>
</svg>
