<svg width="36" height="35" viewBox="0 0 36 35" fill="none" xmlns="http://www.w3.org/2000/svg">
<path d="M18.0001 0C8.06024 0 0 8.02293 0 17.9201C0 25.8377 5.15759 32.555 12.3096 34.9245C13.2092 35.0904 13.5395 34.5358 13.5395 34.0625C13.5395 33.6351 13.5228 32.2235 13.515 30.7261C8.50736 31.8101 7.45068 28.6118 7.45068 28.6118C6.63187 26.5404 5.45209 25.9897 5.45209 25.9897C3.81894 24.8775 5.57519 24.9003 5.57519 24.9003C7.38272 25.0267 8.33447 26.747 8.33447 26.747C9.93991 29.4866 12.5454 28.6945 13.5725 28.2367C13.7341 27.0784 14.2006 26.2879 14.7154 25.8404C10.7173 25.3873 6.51443 23.8507 6.51443 16.9842C6.51443 15.0277 7.21759 13.4291 8.36905 12.1742C8.18216 11.7228 7.56604 9.90018 8.54342 7.43181C8.54342 7.43181 10.055 6.95018 13.4947 9.26869C14.9306 8.87164 16.4704 8.67252 18.0001 8.6657C19.5299 8.67252 21.0709 8.87164 22.5094 9.26869C25.945 6.95018 27.4545 7.43181 27.4545 7.43181C28.4343 9.90018 27.8178 11.7228 27.631 12.1742C28.7851 13.4291 29.4835 15.0277 29.4835 16.9842C29.4835 23.867 25.2726 25.3825 21.2644 25.8262C21.91 26.3823 22.4853 27.4728 22.4853 29.1447C22.4853 31.5425 22.4644 33.4722 22.4644 34.0625C22.4644 34.5393 22.7884 35.0981 23.7008 34.9221C30.849 32.5499 36 25.8351 36 17.9201C36 8.02293 27.9409 0 18.0001 0ZM6.74164 25.5276C6.702 25.6167 6.56131 25.6434 6.43313 25.5822C6.30258 25.5238 6.22925 25.4024 6.27158 25.3131C6.31033 25.2214 6.45132 25.1959 6.58157 25.2573C6.71243 25.3157 6.78695 25.4383 6.74164 25.5276ZM7.62705 26.3142C7.5412 26.3934 7.37339 26.3566 7.25952 26.2314C7.14178 26.1064 7.11973 25.9394 7.20676 25.8589C7.29529 25.7797 7.45804 25.8168 7.57608 25.9417C7.69382 26.0681 7.71677 26.234 7.62705 26.3142ZM8.23447 27.3205C8.12418 27.3968 7.94385 27.3252 7.83237 27.1659C7.72208 27.0065 7.72208 26.8154 7.83475 26.7389C7.94653 26.6623 8.12418 26.7311 8.23715 26.8893C8.34714 27.0513 8.34714 27.2424 8.23447 27.3205ZM9.26175 28.486C9.16309 28.5943 8.95295 28.5652 8.79914 28.4174C8.64176 28.2729 8.59794 28.0678 8.6969 27.9595C8.79676 27.8509 9.00809 27.8815 9.16309 28.0281C9.31928 28.1723 9.36697 28.3788 9.26175 28.486ZM10.5894 28.8794C10.5459 29.0198 10.3435 29.0836 10.1396 29.0239C9.93604 28.9625 9.8028 28.7981 9.84393 28.6563C9.88626 28.515 10.0895 28.4485 10.2949 28.5123C10.4982 28.5735 10.6317 28.7367 10.5894 28.8794ZM12.1004 29.0463C12.1054 29.1941 11.9325 29.3166 11.7185 29.3193C11.5033 29.3241 11.3292 29.2045 11.3268 29.0591C11.3268 28.9098 11.4959 28.7884 11.7111 28.7849C11.9251 28.7807 12.1004 28.8994 12.1004 29.0463ZM13.5847 28.9897C13.6103 29.1339 13.4616 29.282 13.249 29.3214C13.0401 29.3594 12.8466 29.2704 12.8201 29.1274C12.7942 28.9796 12.9456 28.8315 13.1543 28.7932C13.3671 28.7564 13.5576 28.8431 13.5847 28.9897Z" fill="#C0FB7D"/>
</svg>
